<?xml version="1.0" standalone="no"?><!DOCTYPE svg PUBLIC "-//W3C//DTD SVG 1.1//EN" "http://www.w3.org/Graphics/SVG/1.1/DTD/svg11.dtd"><svg t="1576240870503" class="icon" viewBox="0 0 1024 1024" version="1.1" xmlns="http://www.w3.org/2000/svg" p-id="6704" width="32" height="32" xmlns:xlink="http://www.w3.org/1999/xlink"><defs><style type="text/css"></style></defs><path d="M511.502223 1023.99872a511.629583 511.629583 0 0 1-199.110862-982.754327 511.643805 511.643805 0 0 1 398.221724 942.619266 508.372698 508.372698 0 0 1-199.110862 40.135061z m0-460.557647L665.599808 717.993769a35.953733 35.953733 0 0 0 61.425701-25.287079 35.825733 35.825733 0 0 0-10.481765-25.457746L562.247048 512.497137l154.353585-154.83714a35.982177 35.982177 0 1 0-51.000825-50.759047L511.502223 461.553201 357.347749 306.986283a35.953733 35.953733 0 0 0-50.958159 50.744825L460.800064 512.497137 306.38959 667.248944a35.967955 35.967955 0 0 0 25.486191 61.340367 35.470178 35.470178 0 0 0 25.471968-10.58132l154.140252-154.552695z" fill="#d81e06" p-id="6705"></path></svg>