<?xml version="1.0" standalone="no"?><!DOCTYPE svg PUBLIC "-//W3C//DTD SVG 1.1//EN" "http://www.w3.org/Graphics/SVG/1.1/DTD/svg11.dtd"><svg t="1576241036865" class="icon" viewBox="0 0 1024 1024" version="1.1" xmlns="http://www.w3.org/2000/svg" p-id="11252" xmlns:xlink="http://www.w3.org/1999/xlink" width="32" height="32"><defs><style type="text/css"></style></defs><path d="M511.846569 1024a511.846569 511.846569 0 1 1 511.846569-512.153431 511.846569 511.846569 0 0 1-511.846569 512.153431z m78.249925-761.325742a78.556788 78.556788 0 0 0-78.249925-71.192088 77.6362 77.6362 0 0 0-78.249925 70.885226l20.559784 295.815403c0 39.278394 18.104885 70.885226 57.076416 70.885226s59.224453-30.686245 59.224453-70.885226z m-78.249925 405.058436a80.0911 80.0911 0 1 0 80.397962 80.397962 80.0911 80.0911 0 0 0-80.397962-80.397962z m0 0" fill="#FFCC00" p-id="11253"></path></svg>