<?xml version="1.0" standalone="no"?><!DOCTYPE svg PUBLIC "-//W3C//DTD SVG 1.1//EN" "http://www.w3.org/Graphics/SVG/1.1/DTD/svg11.dtd"><svg t="1576240997677" class="icon" viewBox="0 0 1024 1024" version="1.1" xmlns="http://www.w3.org/2000/svg" p-id="9251" xmlns:xlink="http://www.w3.org/1999/xlink" width="32" height="32"><defs><style type="text/css"></style></defs><path d="M512 0C229.216 0 0 229.216 0 512s229.216 512 512 512 512-229.216 512-512S794.784 0 512 0" fill="#39B54A" p-id="9252"></path><path d="M826.656 338.688L446.144 760.928a30.4 30.4 0 0 1-44.544 0.672l-219.616-229.28a30.432 30.432 0 0 1 1.152-43.2l42.944-40.448a30.464 30.464 0 0 1 40.832-0.896l124.8 108.352a30.432 30.432 0 0 0 39.456 0.352l334.688-279.84a30.4 30.4 0 0 1 40.768 1.6l18.72 18.336a30.4 30.4 0 0 1 1.312 42.112" fill="#FFFFFF" p-id="9253"></path></svg>